<svg xmlns="http://www.w3.org/2000/svg" id="export" class="canvas" preserveAspectRatio="xMidYMid meet" style="position: static; margin: auto; width: 314px; height: 1248px;" width="125" height="1060"><rect id="background" fill="#fff" pointer-events="all" width="125" height="1060"/><g id="origin" transform="translate(5.6585937500000005, 5.6585937500000005) scale(1)"><g id="clusters" class="clusters"/><g id="edge-paths" class="edge-paths"><defs><marker id="arrowhead-vee" viewBox="0 0 10 10" refX="9" refY="5" markerUnits="strokeWidth" markerWidth="8" markerHeight="6" orient="auto" style="fill: rgb(0, 0, 0);"><path d="M 0 0 L 10 5 L 0 10 L 4 5 z" style="stroke-width: 1;"/></marker><marker id="arrowhead-vee-select" viewBox="0 0 10 10" refX="9" refY="5" markerUnits="strokeWidth" markerWidth="8" markerHeight="6" orient="auto" style="fill: rgb(238, 0, 0);"><path d="M 0 0 L 10 5 L 0 10 L 4 5 z" style="stroke-width: 1;"/></marker></defs><path id="edge-input" class="edge-path" d="M56.5859375,20L56.5859375,21.666666666666668C56.5859375,23.333333333333332,56.5859375,26.666666666666668,56.5859375,30C56.5859375,33.333333333333336,56.5859375,36.666666666666664,56.5859375,40C56.5859375,43.333333333333336,56.5859375,46.666666666666664,56.5859375,50C56.5859375,53.333333333333336,56.5859375,56.666666666666664,56.5859375,58.333333333333336L56.5859375,60" style="stroke: rgb(0, 0, 0); stroke-width: 1px; fill: none; marker-end: url(&quot;#arrowhead-vee&quot;);"/><path id="edge-conv2d_input" class="edge-path" d="M56.5859375,80L56.5859375,81.66666666666667C56.5859375,83.33333333333333,56.5859375,86.66666666666667,56.5859375,90C56.5859375,93.33333333333333,56.5859375,96.66666666666667,56.5859375,98.33333333333333L56.5859375,100" style="stroke: rgb(0, 0, 0); stroke-width: 1px; fill: none; marker-end: url(&quot;#arrowhead-vee&quot;);"/><path id="edge-conv2d" class="edge-path" d="M56.5859375,170L56.5859375,171.66666666666666C56.5859375,173.33333333333334,56.5859375,176.66666666666666,56.5859375,180C56.5859375,183.33333333333334,56.5859375,186.66666666666666,56.5859375,188.33333333333334L56.5859375,190" style="stroke: rgb(0, 0, 0); stroke-width: 1px; fill: none; marker-end: url(&quot;#arrowhead-vee&quot;);"/><path id="edge-batch_normalization" class="edge-path" d="M56.5859375,266L56.5859375,267.6666666666667C56.5859375,269.3333333333333,56.5859375,272.6666666666667,56.5859375,276C56.5859375,279.3333333333333,56.5859375,282.6666666666667,56.5859375,284.3333333333333L56.5859375,286" style="stroke: rgb(0, 0, 0); stroke-width: 1px; fill: none; marker-end: url(&quot;#arrowhead-vee&quot;);"/><path id="edge-max_pooling2d" class="edge-path" d="M56.5859375,306L56.5859375,307.6666666666667C56.5859375,309.3333333333333,56.5859375,312.6666666666667,56.5859375,316C56.5859375,319.3333333333333,56.5859375,322.6666666666667,56.5859375,324.3333333333333L56.5859375,326" style="stroke: rgb(0, 0, 0); stroke-width: 1px; fill: none; marker-end: url(&quot;#arrowhead-vee&quot;);"/><path id="edge-dropout" class="edge-path" d="M56.5859375,346L56.5859375,347.6666666666667C56.5859375,349.3333333333333,56.5859375,352.6666666666667,56.5859375,356C56.5859375,359.3333333333333,56.5859375,362.6666666666667,56.5859375,364.3333333333333L56.5859375,366" style="stroke: rgb(0, 0, 0); stroke-width: 1px; fill: none; marker-end: url(&quot;#arrowhead-vee&quot;);"/><path id="edge-conv2d_1" class="edge-path" d="M56.5859375,436L56.5859375,437.6666666666667C56.5859375,439.3333333333333,56.5859375,442.6666666666667,56.5859375,446C56.5859375,449.3333333333333,56.5859375,452.6666666666667,56.5859375,454.3333333333333L56.5859375,456" style="stroke: rgb(0, 0, 0); stroke-width: 1px; fill: none; marker-end: url(&quot;#arrowhead-vee&quot;);"/><path id="edge-batch_normalization_1" class="edge-path" d="M56.5859375,532L56.5859375,533.6666666666666C56.5859375,535.3333333333334,56.5859375,538.6666666666666,56.5859375,542C56.5859375,545.3333333333334,56.5859375,548.6666666666666,56.5859375,550.3333333333334L56.5859375,552" style="stroke: rgb(0, 0, 0); stroke-width: 1px; fill: none; marker-end: url(&quot;#arrowhead-vee&quot;);"/><path id="edge-max_pooling2d_1" class="edge-path" d="M56.5859375,572L56.5859375,573.6666666666666C56.5859375,575.3333333333334,56.5859375,578.6666666666666,56.5859375,582C56.5859375,585.3333333333334,56.5859375,588.6666666666666,56.5859375,590.3333333333334L56.5859375,592" style="stroke: rgb(0, 0, 0); stroke-width: 1px; fill: none; marker-end: url(&quot;#arrowhead-vee&quot;);"/><path id="edge-dropout_1" class="edge-path" d="M56.5859375,612L56.5859375,613.6666666666666C56.5859375,615.3333333333334,56.5859375,618.6666666666666,56.5859375,622C56.5859375,625.3333333333334,56.5859375,628.6666666666666,56.5859375,630.3333333333334L56.5859375,632" style="stroke: rgb(0, 0, 0); stroke-width: 1px; fill: none; marker-end: url(&quot;#arrowhead-vee&quot;);"/><path id="edge-conv2d_2" class="edge-path" d="M56.5859375,702L56.5859375,703.6666666666666C56.5859375,705.3333333333334,56.5859375,708.6666666666666,56.5859375,712C56.5859375,715.3333333333334,56.5859375,718.6666666666666,56.5859375,720.3333333333334L56.5859375,722" style="stroke: rgb(0, 0, 0); stroke-width: 1px; fill: none; marker-end: url(&quot;#arrowhead-vee&quot;);"/><path id="edge-batch_normalization_2" class="edge-path" d="M56.5859375,798L56.5859375,799.6666666666666C56.5859375,801.3333333333334,56.5859375,804.6666666666666,56.5859375,808C56.5859375,811.3333333333334,56.5859375,814.6666666666666,56.5859375,816.3333333333334L56.5859375,818" style="stroke: rgb(0, 0, 0); stroke-width: 1px; fill: none; marker-end: url(&quot;#arrowhead-vee&quot;);"/><path id="edge-max_pooling2d_2" class="edge-path" d="M56.5859375,838L56.5859375,839.6666666666666C56.5859375,841.3333333333334,56.5859375,844.6666666666666,56.5859375,848C56.5859375,851.3333333333334,56.5859375,854.6666666666666,56.5859375,856.3333333333334L56.5859375,858" style="stroke: rgb(0, 0, 0); stroke-width: 1px; fill: none; marker-end: url(&quot;#arrowhead-vee&quot;);"/><path id="edge-dropout_2" class="edge-path" d="M56.5859375,878L56.5859375,879.6666666666666C56.5859375,881.3333333333334,56.5859375,884.6666666666666,56.5859375,888C56.5859375,891.3333333333334,56.5859375,894.6666666666666,56.5859375,896.3333333333334L56.5859375,898" style="stroke: rgb(0, 0, 0); stroke-width: 1px; fill: none; marker-end: url(&quot;#arrowhead-vee&quot;);"/><path id="edge-flatten" class="edge-path" d="M56.5859375,918L56.5859375,919.6666666666666C56.5859375,921.3333333333334,56.5859375,924.6666666666666,56.5859375,928C56.5859375,931.3333333333334,56.5859375,934.6666666666666,56.5859375,936.3333333333334L56.5859375,938" style="stroke: rgb(0, 0, 0); stroke-width: 1px; fill: none; marker-end: url(&quot;#arrowhead-vee&quot;);"/><path id="edge-dense" class="edge-path" d="M56.5859375,1008L56.5859375,1009.6666666666666C56.5859375,1011.3333333333334,56.5859375,1014.6666666666666,56.5859375,1018C56.5859375,1021.3333333333334,56.5859375,1024.6666666666667,56.5859375,1026.3333333333333L56.5859375,1028" style="stroke: rgb(0, 0, 0); stroke-width: 1px; fill: none; marker-end: url(&quot;#arrowhead-vee&quot;);"/></g><g id="edge-labels" class="edge-labels"/><g id="nodes" class="nodes"><g id="node-name-conv2d_input" class="node graph-node" transform="translate(56.5859375,70)" style="opacity: 1;"><g transform="translate(-34.19481658935547,-10)"><g class="node-item node-item-type node-item-type-data" transform="translate(0,0)"><path d="M5,0h58.38963317871094a5,5 0 0 1 5,5v10a5,5 0 0 1 -5,5h-58.38963317871094a5,5 0 0 1 -5,-5v-10a5,5 0 0 1 5,-5z" style="stroke: rgb(0, 0, 0); fill: rgb(85, 85, 85); stroke-width: 0;"/><text x="6" y="14" style="font-family: -apple-system, BlinkMacSystemFont, &quot;Segoe WPC&quot;, &quot;Segoe UI&quot;, Ubuntu, &quot;Droid Sans&quot;, sans-serif, &quot;PingFang SC&quot;; font-size: 11px; text-rendering: geometricprecision; fill: rgb(255, 255, 255);">InputLayer</text><title>conv2d_input</title></g><path class="node border" d="M5,0h58.38963317871094a5,5 0 0 1 5,5v10a5,5 0 0 1 -5,5h-58.38963317871094a5,5 0 0 1 -5,-5v-10a5,5 0 0 1 5,-5z" style="stroke: rgb(51, 51, 51); fill: none; stroke-width: 1px;"/></g></g><g id="node-name-conv2d" class="node graph-node" transform="translate(56.5859375,135)" style="opacity: 1;"><g transform="translate(-44.226566314697266,-35)"><g class="node-item node-item-type node-item-type-layer" transform="translate(0,0)"><path d="M5,0h78.453125a5,5 0 0 1 5,5v15a0,0 0 0 1 0,0h-88.453125a0,0 0 0 1 0,0v-15a5,5 0 0 1 5,-5z" style="stroke: rgb(0, 0, 0); fill: rgb(51, 85, 136); stroke-width: 0;"/><text x="6" y="14" style="font-family: -apple-system, BlinkMacSystemFont, &quot;Segoe WPC&quot;, &quot;Segoe UI&quot;, Ubuntu, &quot;Droid Sans&quot;, sans-serif, &quot;PingFang SC&quot;; font-size: 11px; text-rendering: geometricprecision; fill: rgb(255, 255, 255);">Conv2D</text><title>conv2d</title></g><g class="node-attribute" transform="translate(0,20)"><path d="M0,0h88.453125a0,0 0 0 1 0,0v30a0,0 0 0 1 0,0h-88.453125a0,0 0 0 1 0,0v-30a0,0 0 0 1 0,0z" style="stroke: rgb(0, 0, 0); fill: rgb(255, 255, 255); stroke-width: 0;"/><text id="initializer-conv2d/kernel:0" xml:space="preserve" x="6" y="12" style="font-family: -apple-system, BlinkMacSystemFont, &quot;Segoe WPC&quot;, &quot;Segoe UI&quot;, Ubuntu, &quot;Droid Sans&quot;, sans-serif, &quot;PingFang SC&quot;; font-size: 9px; font-weight: normal; text-rendering: geometricprecision;"><title>float32[3,3,4,40]</title><tspan style="font-weight: bold;">kernel</tspan><tspan>〈3×3×4×40〉</tspan></text><text id="initializer-conv2d/bias:0" xml:space="preserve" x="6" y="24" style="font-family: -apple-system, BlinkMacSystemFont, &quot;Segoe WPC&quot;, &quot;Segoe UI&quot;, Ubuntu, &quot;Droid Sans&quot;, sans-serif, &quot;PingFang SC&quot;; font-size: 9px; font-weight: normal; text-rendering: geometricprecision;"><title>float32[40]</title><tspan style="font-weight: bold;">bias</tspan><tspan>〈40〉</tspan></text><line class="node" x1="0" x2="88.453125" y1="0" y2="0" style="stroke: rgb(51, 51, 51); fill: none; stroke-width: 1px;"/></g><g class="node-item node-item-type node-item-type-activation" transform="translate(0,50)"><path d="M0,0h88.453125a0,0 0 0 1 0,0v15a5,5 0 0 1 -5,5h-78.453125a5,5 0 0 1 -5,-5v-15a0,0 0 0 1 0,0z" style="stroke: rgb(0, 0, 0); fill: rgb(112, 41, 33); stroke-width: 0;"/><text x="6" y="14" style="font-family: -apple-system, BlinkMacSystemFont, &quot;Segoe WPC&quot;, &quot;Segoe UI&quot;, Ubuntu, &quot;Droid Sans&quot;, sans-serif, &quot;PingFang SC&quot;; font-size: 11px; text-rendering: geometricprecision; fill: rgb(255, 255, 255);">ReLU</text></g><line class="node" x1="0" x2="88.453125" y1="50" y2="50" style="stroke: rgb(51, 51, 51); fill: none; stroke-width: 1px;"/><path class="node border" d="M5,0h78.453125a5,5 0 0 1 5,5v60a5,5 0 0 1 -5,5h-78.453125a5,5 0 0 1 -5,-5v-60a5,5 0 0 1 5,-5z" style="stroke: rgb(51, 51, 51); fill: none; stroke-width: 1px;"/></g></g><g id="node-name-batch_normalization" class="node graph-node" transform="translate(56.5859375,228)" style="opacity: 1;"><g transform="translate(-56.5859375,-38)"><g class="node-item node-item-type node-item-type-normalization" transform="translate(0,0)"><path d="M5,0h103.171875a5,5 0 0 1 5,5v15a0,0 0 0 1 0,0h-113.171875a0,0 0 0 1 0,0v-15a5,5 0 0 1 5,-5z" style="stroke: rgb(0, 0, 0); fill: rgb(51, 85, 68); stroke-width: 0;"/><text x="6" y="14" style="font-family: -apple-system, BlinkMacSystemFont, &quot;Segoe WPC&quot;, &quot;Segoe UI&quot;, Ubuntu, &quot;Droid Sans&quot;, sans-serif, &quot;PingFang SC&quot;; font-size: 11px; text-rendering: geometricprecision; fill: rgb(255, 255, 255);">BatchNormalization</text><title>batch_normalization</title></g><g class="node-attribute" transform="translate(0,20)"><path d="M0,0h113.171875a0,0 0 0 1 0,0v51a5,5 0 0 1 -5,5h-103.171875a5,5 0 0 1 -5,-5v-51a0,0 0 0 1 0,0z" style="stroke: rgb(0, 0, 0); fill: rgb(255, 255, 255); stroke-width: 0;"/><text id="initializer-batch_normalization/gamma:0" xml:space="preserve" x="6" y="12" style="font-family: -apple-system, BlinkMacSystemFont, &quot;Segoe WPC&quot;, &quot;Segoe UI&quot;, Ubuntu, &quot;Droid Sans&quot;, sans-serif, &quot;PingFang SC&quot;; font-size: 9px; font-weight: normal; text-rendering: geometricprecision;"><title>float32[40]</title><tspan style="font-weight: bold;">gamma</tspan><tspan>〈40〉</tspan></text><text id="initializer-batch_normalization/beta:0" xml:space="preserve" x="6" y="24" style="font-family: -apple-system, BlinkMacSystemFont, &quot;Segoe WPC&quot;, &quot;Segoe UI&quot;, Ubuntu, &quot;Droid Sans&quot;, sans-serif, &quot;PingFang SC&quot;; font-size: 9px; font-weight: normal; text-rendering: geometricprecision;"><title>float32[40]</title><tspan style="font-weight: bold;">beta</tspan><tspan>〈40〉</tspan></text><text id="initializer-batch_normalization/moving_mean:0" xml:space="preserve" x="6" y="36" style="font-family: -apple-system, BlinkMacSystemFont, &quot;Segoe WPC&quot;, &quot;Segoe UI&quot;, Ubuntu, &quot;Droid Sans&quot;, sans-serif, &quot;PingFang SC&quot;; font-size: 9px; font-weight: normal; text-rendering: geometricprecision;"><title>float32[40]</title><tspan style="font-weight: bold;">moving_mean</tspan><tspan>〈40〉</tspan></text><text id="initializer-batch_normalization/moving_variance:0" xml:space="preserve" x="6" y="49" style="font-family: -apple-system, BlinkMacSystemFont, &quot;Segoe WPC&quot;, &quot;Segoe UI&quot;, Ubuntu, &quot;Droid Sans&quot;, sans-serif, &quot;PingFang SC&quot;; font-size: 9px; font-weight: normal; text-rendering: geometricprecision;"><title>float32[40]</title><tspan style="font-weight: bold;">moving_variance</tspan><tspan>〈40〉</tspan></text><line class="node" x1="0" x2="113.171875" y1="0" y2="0" style="stroke: rgb(51, 51, 51); fill: none; stroke-width: 1px;"/></g><path class="node border" d="M5,0h103.171875a5,5 0 0 1 5,5v66a5,5 0 0 1 -5,5h-103.171875a5,5 0 0 1 -5,-5v-66a5,5 0 0 1 5,-5z" style="stroke: rgb(51, 51, 51); fill: none; stroke-width: 1px;"/></g></g><g id="node-name-max_pooling2d" class="node graph-node" transform="translate(56.5859375,296)" style="opacity: 1;"><g transform="translate(-43.52124786376953,-10)"><g class="node-item node-item-type node-item-type-pool" transform="translate(0,0)"><path d="M5,0h77.04249572753906a5,5 0 0 1 5,5v10a5,5 0 0 1 -5,5h-77.04249572753906a5,5 0 0 1 -5,-5v-10a5,5 0 0 1 5,-5z" style="stroke: rgb(0, 0, 0); fill: rgb(51, 85, 51); stroke-width: 0;"/><text x="6" y="14" style="font-family: -apple-system, BlinkMacSystemFont, &quot;Segoe WPC&quot;, &quot;Segoe UI&quot;, Ubuntu, &quot;Droid Sans&quot;, sans-serif, &quot;PingFang SC&quot;; font-size: 11px; text-rendering: geometricprecision; fill: rgb(255, 255, 255);">MaxPooling2D</text><title>max_pooling2d</title></g><path class="node border" d="M5,0h77.04249572753906a5,5 0 0 1 5,5v10a5,5 0 0 1 -5,5h-77.04249572753906a5,5 0 0 1 -5,-5v-10a5,5 0 0 1 5,-5z" style="stroke: rgb(51, 51, 51); fill: none; stroke-width: 1px;"/></g></g><g id="node-name-dropout" class="node graph-node" transform="translate(56.5859375,336)" style="opacity: 1;"><g transform="translate(-28.43085479736328,-10)"><g class="node-item node-item-type node-item-type-dropout" transform="translate(0,0)"><path d="M5,0h46.86170959472656a5,5 0 0 1 5,5v10a5,5 0 0 1 -5,5h-46.86170959472656a5,5 0 0 1 -5,-5v-10a5,5 0 0 1 5,-5z" style="stroke: rgb(0, 0, 0); fill: rgb(69, 71, 112); stroke-width: 0;"/><text x="6" y="14" style="font-family: -apple-system, BlinkMacSystemFont, &quot;Segoe WPC&quot;, &quot;Segoe UI&quot;, Ubuntu, &quot;Droid Sans&quot;, sans-serif, &quot;PingFang SC&quot;; font-size: 11px; text-rendering: geometricprecision; fill: rgb(255, 255, 255);">Dropout</text><title>dropout</title></g><path class="node border" d="M5,0h46.86170959472656a5,5 0 0 1 5,5v10a5,5 0 0 1 -5,5h-46.86170959472656a5,5 0 0 1 -5,-5v-10a5,5 0 0 1 5,-5z" style="stroke: rgb(51, 51, 51); fill: none; stroke-width: 1px;"/></g></g><g id="node-name-conv2d_1" class="node graph-node" transform="translate(56.5859375,401)" style="opacity: 1;"><g transform="translate(-46.765625,-35)"><g class="node-item node-item-type node-item-type-layer" transform="translate(0,0)"><path d="M5,0h83.53125a5,5 0 0 1 5,5v15a0,0 0 0 1 0,0h-93.53125a0,0 0 0 1 0,0v-15a5,5 0 0 1 5,-5z" style="stroke: rgb(0, 0, 0); fill: rgb(51, 85, 136); stroke-width: 0;"/><text x="6" y="14" style="font-family: -apple-system, BlinkMacSystemFont, &quot;Segoe WPC&quot;, &quot;Segoe UI&quot;, Ubuntu, &quot;Droid Sans&quot;, sans-serif, &quot;PingFang SC&quot;; font-size: 11px; text-rendering: geometricprecision; fill: rgb(255, 255, 255);">Conv2D</text><title>conv2d_1</title></g><g class="node-attribute" transform="translate(0,20)"><path d="M0,0h93.53125a0,0 0 0 1 0,0v30a0,0 0 0 1 0,0h-93.53125a0,0 0 0 1 0,0v-30a0,0 0 0 1 0,0z" style="stroke: rgb(0, 0, 0); fill: rgb(255, 255, 255); stroke-width: 0;"/><text id="initializer-conv2d_1/kernel:0" xml:space="preserve" x="6" y="12" style="font-family: -apple-system, BlinkMacSystemFont, &quot;Segoe WPC&quot;, &quot;Segoe UI&quot;, Ubuntu, &quot;Droid Sans&quot;, sans-serif, &quot;PingFang SC&quot;; font-size: 9px; font-weight: normal; text-rendering: geometricprecision;"><title>float32[3,3,40,60]</title><tspan style="font-weight: bold;">kernel</tspan><tspan>〈3×3×40×60〉</tspan></text><text id="initializer-conv2d_1/bias:0" xml:space="preserve" x="6" y="24" style="font-family: -apple-system, BlinkMacSystemFont, &quot;Segoe WPC&quot;, &quot;Segoe UI&quot;, Ubuntu, &quot;Droid Sans&quot;, sans-serif, &quot;PingFang SC&quot;; font-size: 9px; font-weight: normal; text-rendering: geometricprecision;"><title>float32[60]</title><tspan style="font-weight: bold;">bias</tspan><tspan>〈60〉</tspan></text><line class="node" x1="0" x2="93.53125" y1="0" y2="0" style="stroke: rgb(51, 51, 51); fill: none; stroke-width: 1px;"/></g><g class="node-item node-item-type node-item-type-activation" transform="translate(0,50)"><path d="M0,0h93.53125a0,0 0 0 1 0,0v15a5,5 0 0 1 -5,5h-83.53125a5,5 0 0 1 -5,-5v-15a0,0 0 0 1 0,0z" style="stroke: rgb(0, 0, 0); fill: rgb(112, 41, 33); stroke-width: 0;"/><text x="6" y="14" style="font-family: -apple-system, BlinkMacSystemFont, &quot;Segoe WPC&quot;, &quot;Segoe UI&quot;, Ubuntu, &quot;Droid Sans&quot;, sans-serif, &quot;PingFang SC&quot;; font-size: 11px; text-rendering: geometricprecision; fill: rgb(255, 255, 255);">ReLU</text></g><line class="node" x1="0" x2="93.53125" y1="50" y2="50" style="stroke: rgb(51, 51, 51); fill: none; stroke-width: 1px;"/><path class="node border" d="M5,0h83.53125a5,5 0 0 1 5,5v60a5,5 0 0 1 -5,5h-83.53125a5,5 0 0 1 -5,-5v-60a5,5 0 0 1 5,-5z" style="stroke: rgb(51, 51, 51); fill: none; stroke-width: 1px;"/></g></g><g id="node-name-batch_normalization_1" class="node graph-node" transform="translate(56.5859375,494)" style="opacity: 1;"><g transform="translate(-56.5859375,-38)"><g class="node-item node-item-type node-item-type-normalization" transform="translate(0,0)"><path d="M5,0h103.171875a5,5 0 0 1 5,5v15a0,0 0 0 1 0,0h-113.171875a0,0 0 0 1 0,0v-15a5,5 0 0 1 5,-5z" style="stroke: rgb(0, 0, 0); fill: rgb(51, 85, 68); stroke-width: 0;"/><text x="6" y="14" style="font-family: -apple-system, BlinkMacSystemFont, &quot;Segoe WPC&quot;, &quot;Segoe UI&quot;, Ubuntu, &quot;Droid Sans&quot;, sans-serif, &quot;PingFang SC&quot;; font-size: 11px; text-rendering: geometricprecision; fill: rgb(255, 255, 255);">BatchNormalization</text><title>batch_normalization_1</title></g><g class="node-attribute" transform="translate(0,20)"><path d="M0,0h113.171875a0,0 0 0 1 0,0v51a5,5 0 0 1 -5,5h-103.171875a5,5 0 0 1 -5,-5v-51a0,0 0 0 1 0,0z" style="stroke: rgb(0, 0, 0); fill: rgb(255, 255, 255); stroke-width: 0;"/><text id="initializer-batch_normalization_1/gamma:0" xml:space="preserve" x="6" y="12" style="font-family: -apple-system, BlinkMacSystemFont, &quot;Segoe WPC&quot;, &quot;Segoe UI&quot;, Ubuntu, &quot;Droid Sans&quot;, sans-serif, &quot;PingFang SC&quot;; font-size: 9px; font-weight: normal; text-rendering: geometricprecision;"><title>float32[60]</title><tspan style="font-weight: bold;">gamma</tspan><tspan>〈60〉</tspan></text><text id="initializer-batch_normalization_1/beta:0" xml:space="preserve" x="6" y="24" style="font-family: -apple-system, BlinkMacSystemFont, &quot;Segoe WPC&quot;, &quot;Segoe UI&quot;, Ubuntu, &quot;Droid Sans&quot;, sans-serif, &quot;PingFang SC&quot;; font-size: 9px; font-weight: normal; text-rendering: geometricprecision;"><title>float32[60]</title><tspan style="font-weight: bold;">beta</tspan><tspan>〈60〉</tspan></text><text id="initializer-batch_normalization_1/moving_mean:0" xml:space="preserve" x="6" y="36" style="font-family: -apple-system, BlinkMacSystemFont, &quot;Segoe WPC&quot;, &quot;Segoe UI&quot;, Ubuntu, &quot;Droid Sans&quot;, sans-serif, &quot;PingFang SC&quot;; font-size: 9px; font-weight: normal; text-rendering: geometricprecision;"><title>float32[60]</title><tspan style="font-weight: bold;">moving_mean</tspan><tspan>〈60〉</tspan></text><text id="initializer-batch_normalization_1/moving_variance:0" xml:space="preserve" x="6" y="49" style="font-family: -apple-system, BlinkMacSystemFont, &quot;Segoe WPC&quot;, &quot;Segoe UI&quot;, Ubuntu, &quot;Droid Sans&quot;, sans-serif, &quot;PingFang SC&quot;; font-size: 9px; font-weight: normal; text-rendering: geometricprecision;"><title>float32[60]</title><tspan style="font-weight: bold;">moving_variance</tspan><tspan>〈60〉</tspan></text><line class="node" x1="0" x2="113.171875" y1="0" y2="0" style="stroke: rgb(51, 51, 51); fill: none; stroke-width: 1px;"/></g><path class="node border" d="M5,0h103.171875a5,5 0 0 1 5,5v66a5,5 0 0 1 -5,5h-103.171875a5,5 0 0 1 -5,-5v-66a5,5 0 0 1 5,-5z" style="stroke: rgb(51, 51, 51); fill: none; stroke-width: 1px;"/></g></g><g id="node-name-max_pooling2d_1" class="node graph-node" transform="translate(56.5859375,562)" style="opacity: 1;"><g transform="translate(-43.52124786376953,-10)"><g class="node-item node-item-type node-item-type-pool" transform="translate(0,0)"><path d="M5,0h77.04249572753906a5,5 0 0 1 5,5v10a5,5 0 0 1 -5,5h-77.04249572753906a5,5 0 0 1 -5,-5v-10a5,5 0 0 1 5,-5z" style="stroke: rgb(0, 0, 0); fill: rgb(51, 85, 51); stroke-width: 0;"/><text x="6" y="14" style="font-family: -apple-system, BlinkMacSystemFont, &quot;Segoe WPC&quot;, &quot;Segoe UI&quot;, Ubuntu, &quot;Droid Sans&quot;, sans-serif, &quot;PingFang SC&quot;; font-size: 11px; text-rendering: geometricprecision; fill: rgb(255, 255, 255);">MaxPooling2D</text><title>max_pooling2d_1</title></g><path class="node border" d="M5,0h77.04249572753906a5,5 0 0 1 5,5v10a5,5 0 0 1 -5,5h-77.04249572753906a5,5 0 0 1 -5,-5v-10a5,5 0 0 1 5,-5z" style="stroke: rgb(51, 51, 51); fill: none; stroke-width: 1px;"/></g></g><g id="node-name-dropout_1" class="node graph-node" transform="translate(56.5859375,602)" style="opacity: 1;"><g transform="translate(-28.43085479736328,-10)"><g class="node-item node-item-type node-item-type-dropout" transform="translate(0,0)"><path d="M5,0h46.86170959472656a5,5 0 0 1 5,5v10a5,5 0 0 1 -5,5h-46.86170959472656a5,5 0 0 1 -5,-5v-10a5,5 0 0 1 5,-5z" style="stroke: rgb(0, 0, 0); fill: rgb(69, 71, 112); stroke-width: 0;"/><text x="6" y="14" style="font-family: -apple-system, BlinkMacSystemFont, &quot;Segoe WPC&quot;, &quot;Segoe UI&quot;, Ubuntu, &quot;Droid Sans&quot;, sans-serif, &quot;PingFang SC&quot;; font-size: 11px; text-rendering: geometricprecision; fill: rgb(255, 255, 255);">Dropout</text><title>dropout_1</title></g><path class="node border" d="M5,0h46.86170959472656a5,5 0 0 1 5,5v10a5,5 0 0 1 -5,5h-46.86170959472656a5,5 0 0 1 -5,-5v-10a5,5 0 0 1 5,-5z" style="stroke: rgb(51, 51, 51); fill: none; stroke-width: 1px;"/></g></g><g id="node-name-conv2d_2" class="node graph-node" transform="translate(56.5859375,667)" style="opacity: 1;"><g transform="translate(-49.3046875,-35)"><g class="node-item node-item-type node-item-type-layer" transform="translate(0,0)"><path d="M5,0h88.609375a5,5 0 0 1 5,5v15a0,0 0 0 1 0,0h-98.609375a0,0 0 0 1 0,0v-15a5,5 0 0 1 5,-5z" style="stroke: rgb(0, 0, 0); fill: rgb(51, 85, 136); stroke-width: 0;"/><text x="6" y="14" style="font-family: -apple-system, BlinkMacSystemFont, &quot;Segoe WPC&quot;, &quot;Segoe UI&quot;, Ubuntu, &quot;Droid Sans&quot;, sans-serif, &quot;PingFang SC&quot;; font-size: 11px; text-rendering: geometricprecision; fill: rgb(255, 255, 255);">Conv2D</text><title>conv2d_2</title></g><g class="node-attribute" transform="translate(0,20)"><path d="M0,0h98.609375a0,0 0 0 1 0,0v30a0,0 0 0 1 0,0h-98.609375a0,0 0 0 1 0,0v-30a0,0 0 0 1 0,0z" style="stroke: rgb(0, 0, 0); fill: rgb(255, 255, 255); stroke-width: 0;"/><text id="initializer-conv2d_2/kernel:0" xml:space="preserve" x="6" y="12" style="font-family: -apple-system, BlinkMacSystemFont, &quot;Segoe WPC&quot;, &quot;Segoe UI&quot;, Ubuntu, &quot;Droid Sans&quot;, sans-serif, &quot;PingFang SC&quot;; font-size: 9px; font-weight: normal; text-rendering: geometricprecision;"><title>float32[3,3,60,120]</title><tspan style="font-weight: bold;">kernel</tspan><tspan>〈3×3×60×120〉</tspan></text><text id="initializer-conv2d_2/bias:0" xml:space="preserve" x="6" y="24" style="font-family: -apple-system, BlinkMacSystemFont, &quot;Segoe WPC&quot;, &quot;Segoe UI&quot;, Ubuntu, &quot;Droid Sans&quot;, sans-serif, &quot;PingFang SC&quot;; font-size: 9px; font-weight: normal; text-rendering: geometricprecision;"><title>float32[120]</title><tspan style="font-weight: bold;">bias</tspan><tspan>〈120〉</tspan></text><line class="node" x1="0" x2="98.609375" y1="0" y2="0" style="stroke: rgb(51, 51, 51); fill: none; stroke-width: 1px;"/></g><g class="node-item node-item-type node-item-type-activation" transform="translate(0,50)"><path d="M0,0h98.609375a0,0 0 0 1 0,0v15a5,5 0 0 1 -5,5h-88.609375a5,5 0 0 1 -5,-5v-15a0,0 0 0 1 0,0z" style="stroke: rgb(0, 0, 0); fill: rgb(112, 41, 33); stroke-width: 0;"/><text x="6" y="14" style="font-family: -apple-system, BlinkMacSystemFont, &quot;Segoe WPC&quot;, &quot;Segoe UI&quot;, Ubuntu, &quot;Droid Sans&quot;, sans-serif, &quot;PingFang SC&quot;; font-size: 11px; text-rendering: geometricprecision; fill: rgb(255, 255, 255);">ReLU</text></g><line class="node" x1="0" x2="98.609375" y1="50" y2="50" style="stroke: rgb(51, 51, 51); fill: none; stroke-width: 1px;"/><path class="node border" d="M5,0h88.609375a5,5 0 0 1 5,5v60a5,5 0 0 1 -5,5h-88.609375a5,5 0 0 1 -5,-5v-60a5,5 0 0 1 5,-5z" style="stroke: rgb(51, 51, 51); fill: none; stroke-width: 1px;"/></g></g><g id="node-name-batch_normalization_2" class="node graph-node" transform="translate(56.5859375,760)" style="opacity: 1;"><g transform="translate(-56.5859375,-38)"><g class="node-item node-item-type node-item-type-normalization" transform="translate(0,0)"><path d="M5,0h103.171875a5,5 0 0 1 5,5v15a0,0 0 0 1 0,0h-113.171875a0,0 0 0 1 0,0v-15a5,5 0 0 1 5,-5z" style="stroke: rgb(0, 0, 0); fill: rgb(51, 85, 68); stroke-width: 0;"/><text x="6" y="14" style="font-family: -apple-system, BlinkMacSystemFont, &quot;Segoe WPC&quot;, &quot;Segoe UI&quot;, Ubuntu, &quot;Droid Sans&quot;, sans-serif, &quot;PingFang SC&quot;; font-size: 11px; text-rendering: geometricprecision; fill: rgb(255, 255, 255);">BatchNormalization</text><title>batch_normalization_2</title></g><g class="node-attribute" transform="translate(0,20)"><path d="M0,0h113.171875a0,0 0 0 1 0,0v51a5,5 0 0 1 -5,5h-103.171875a5,5 0 0 1 -5,-5v-51a0,0 0 0 1 0,0z" style="stroke: rgb(0, 0, 0); fill: rgb(255, 255, 255); stroke-width: 0;"/><text id="initializer-batch_normalization_2/gamma:0" xml:space="preserve" x="6" y="12" style="font-family: -apple-system, BlinkMacSystemFont, &quot;Segoe WPC&quot;, &quot;Segoe UI&quot;, Ubuntu, &quot;Droid Sans&quot;, sans-serif, &quot;PingFang SC&quot;; font-size: 9px; font-weight: normal; text-rendering: geometricprecision;"><title>float32[120]</title><tspan style="font-weight: bold;">gamma</tspan><tspan>〈120〉</tspan></text><text id="initializer-batch_normalization_2/beta:0" xml:space="preserve" x="6" y="24" style="font-family: -apple-system, BlinkMacSystemFont, &quot;Segoe WPC&quot;, &quot;Segoe UI&quot;, Ubuntu, &quot;Droid Sans&quot;, sans-serif, &quot;PingFang SC&quot;; font-size: 9px; font-weight: normal; text-rendering: geometricprecision;"><title>float32[120]</title><tspan style="font-weight: bold;">beta</tspan><tspan>〈120〉</tspan></text><text id="initializer-batch_normalization_2/moving_mean:0" xml:space="preserve" x="6" y="36" style="font-family: -apple-system, BlinkMacSystemFont, &quot;Segoe WPC&quot;, &quot;Segoe UI&quot;, Ubuntu, &quot;Droid Sans&quot;, sans-serif, &quot;PingFang SC&quot;; font-size: 9px; font-weight: normal; text-rendering: geometricprecision;"><title>float32[120]</title><tspan style="font-weight: bold;">moving_mean</tspan><tspan>〈120〉</tspan></text><text id="initializer-batch_normalization_2/moving_variance:0" xml:space="preserve" x="6" y="49" style="font-family: -apple-system, BlinkMacSystemFont, &quot;Segoe WPC&quot;, &quot;Segoe UI&quot;, Ubuntu, &quot;Droid Sans&quot;, sans-serif, &quot;PingFang SC&quot;; font-size: 9px; font-weight: normal; text-rendering: geometricprecision;"><title>float32[120]</title><tspan style="font-weight: bold;">moving_variance</tspan><tspan>〈120〉</tspan></text><line class="node" x1="0" x2="113.171875" y1="0" y2="0" style="stroke: rgb(51, 51, 51); fill: none; stroke-width: 1px;"/></g><path class="node border" d="M5,0h103.171875a5,5 0 0 1 5,5v66a5,5 0 0 1 -5,5h-103.171875a5,5 0 0 1 -5,-5v-66a5,5 0 0 1 5,-5z" style="stroke: rgb(51, 51, 51); fill: none; stroke-width: 1px;"/></g></g><g id="node-name-max_pooling2d_2" class="node graph-node" transform="translate(56.5859375,828)" style="opacity: 1;"><g transform="translate(-43.52124786376953,-10)"><g class="node-item node-item-type node-item-type-pool" transform="translate(0,0)"><path d="M5,0h77.04249572753906a5,5 0 0 1 5,5v10a5,5 0 0 1 -5,5h-77.04249572753906a5,5 0 0 1 -5,-5v-10a5,5 0 0 1 5,-5z" style="stroke: rgb(0, 0, 0); fill: rgb(51, 85, 51); stroke-width: 0;"/><text x="6" y="14" style="font-family: -apple-system, BlinkMacSystemFont, &quot;Segoe WPC&quot;, &quot;Segoe UI&quot;, Ubuntu, &quot;Droid Sans&quot;, sans-serif, &quot;PingFang SC&quot;; font-size: 11px; text-rendering: geometricprecision; fill: rgb(255, 255, 255);">MaxPooling2D</text><title>max_pooling2d_2</title></g><path class="node border" d="M5,0h77.04249572753906a5,5 0 0 1 5,5v10a5,5 0 0 1 -5,5h-77.04249572753906a5,5 0 0 1 -5,-5v-10a5,5 0 0 1 5,-5z" style="stroke: rgb(51, 51, 51); fill: none; stroke-width: 1px;"/></g></g><g id="node-name-dropout_2" class="node graph-node" transform="translate(56.5859375,868)" style="opacity: 1;"><g transform="translate(-28.43085479736328,-10)"><g class="node-item node-item-type node-item-type-dropout" transform="translate(0,0)"><path d="M5,0h46.86170959472656a5,5 0 0 1 5,5v10a5,5 0 0 1 -5,5h-46.86170959472656a5,5 0 0 1 -5,-5v-10a5,5 0 0 1 5,-5z" style="stroke: rgb(0, 0, 0); fill: rgb(69, 71, 112); stroke-width: 0;"/><text x="6" y="14" style="font-family: -apple-system, BlinkMacSystemFont, &quot;Segoe WPC&quot;, &quot;Segoe UI&quot;, Ubuntu, &quot;Droid Sans&quot;, sans-serif, &quot;PingFang SC&quot;; font-size: 11px; text-rendering: geometricprecision; fill: rgb(255, 255, 255);">Dropout</text><title>dropout_2</title></g><path class="node border" d="M5,0h46.86170959472656a5,5 0 0 1 5,5v10a5,5 0 0 1 -5,5h-46.86170959472656a5,5 0 0 1 -5,-5v-10a5,5 0 0 1 5,-5z" style="stroke: rgb(51, 51, 51); fill: none; stroke-width: 1px;"/></g></g><g id="node-name-flatten" class="node graph-node" transform="translate(56.5859375,908)" style="opacity: 1;"><g transform="translate(-24.9296875,-10)"><g class="node-item node-item-type node-item-type-shape" transform="translate(0,0)"><path d="M5,0h39.859375a5,5 0 0 1 5,5v10a5,5 0 0 1 -5,5h-39.859375a5,5 0 0 1 -5,-5v-10a5,5 0 0 1 5,-5z" style="stroke: rgb(0, 0, 0); fill: rgb(108, 79, 71); stroke-width: 0;"/><text x="6" y="14" style="font-family: -apple-system, BlinkMacSystemFont, &quot;Segoe WPC&quot;, &quot;Segoe UI&quot;, Ubuntu, &quot;Droid Sans&quot;, sans-serif, &quot;PingFang SC&quot;; font-size: 11px; text-rendering: geometricprecision; fill: rgb(255, 255, 255);">Flatten</text><title>flatten</title></g><path class="node border" d="M5,0h39.859375a5,5 0 0 1 5,5v10a5,5 0 0 1 -5,5h-39.859375a5,5 0 0 1 -5,-5v-10a5,5 0 0 1 5,-5z" style="stroke: rgb(51, 51, 51); fill: none; stroke-width: 1px;"/></g></g><g id="node-name-dense" class="node graph-node" transform="translate(56.5859375,973)" style="opacity: 1;"><g transform="translate(-41.6875,-35)"><g class="node-item node-item-type node-item-type-layer" transform="translate(0,0)"><path d="M5,0h73.375a5,5 0 0 1 5,5v15a0,0 0 0 1 0,0h-83.375a0,0 0 0 1 0,0v-15a5,5 0 0 1 5,-5z" style="stroke: rgb(0, 0, 0); fill: rgb(51, 85, 136); stroke-width: 0;"/><text x="6" y="14" style="font-family: -apple-system, BlinkMacSystemFont, &quot;Segoe WPC&quot;, &quot;Segoe UI&quot;, Ubuntu, &quot;Droid Sans&quot;, sans-serif, &quot;PingFang SC&quot;; font-size: 11px; text-rendering: geometricprecision; fill: rgb(255, 255, 255);">Dense</text><title>dense</title></g><g class="node-attribute" transform="translate(0,20)"><path d="M0,0h83.375a0,0 0 0 1 0,0v30a0,0 0 0 1 0,0h-83.375a0,0 0 0 1 0,0v-30a0,0 0 0 1 0,0z" style="stroke: rgb(0, 0, 0); fill: rgb(255, 255, 255); stroke-width: 0;"/><text id="initializer-dense/kernel:0" xml:space="preserve" x="6" y="12" style="font-family: -apple-system, BlinkMacSystemFont, &quot;Segoe WPC&quot;, &quot;Segoe UI&quot;, Ubuntu, &quot;Droid Sans&quot;, sans-serif, &quot;PingFang SC&quot;; font-size: 9px; font-weight: normal; text-rendering: geometricprecision;"><title>float32[1920,16]</title><tspan style="font-weight: bold;">kernel</tspan><tspan>〈1920×16〉</tspan></text><text id="initializer-dense/bias:0" xml:space="preserve" x="6" y="24" style="font-family: -apple-system, BlinkMacSystemFont, &quot;Segoe WPC&quot;, &quot;Segoe UI&quot;, Ubuntu, &quot;Droid Sans&quot;, sans-serif, &quot;PingFang SC&quot;; font-size: 9px; font-weight: normal; text-rendering: geometricprecision;"><title>float32[16]</title><tspan style="font-weight: bold;">bias</tspan><tspan>〈16〉</tspan></text><line class="node" x1="0" x2="83.375" y1="0" y2="0" style="stroke: rgb(51, 51, 51); fill: none; stroke-width: 1px;"/></g><g class="node-item node-item-type node-item-type-activation" transform="translate(0,50)"><path d="M0,0h83.375a0,0 0 0 1 0,0v15a5,5 0 0 1 -5,5h-73.375a5,5 0 0 1 -5,-5v-15a0,0 0 0 1 0,0z" style="stroke: rgb(0, 0, 0); fill: rgb(112, 41, 33); stroke-width: 0;"/><text x="6" y="14" style="font-family: -apple-system, BlinkMacSystemFont, &quot;Segoe WPC&quot;, &quot;Segoe UI&quot;, Ubuntu, &quot;Droid Sans&quot;, sans-serif, &quot;PingFang SC&quot;; font-size: 11px; text-rendering: geometricprecision; fill: rgb(255, 255, 255);">Softmax</text></g><line class="node" x1="0" x2="83.375" y1="50" y2="50" style="stroke: rgb(51, 51, 51); fill: none; stroke-width: 1px;"/><path class="node border" d="M5,0h73.375a5,5 0 0 1 5,5v60a5,5 0 0 1 -5,5h-73.375a5,5 0 0 1 -5,-5v-60a5,5 0 0 1 5,-5z" style="stroke: rgb(51, 51, 51); fill: none; stroke-width: 1px;"/></g></g><g id="input-name-input" class="node graph-input" transform="translate(56.5859375,10)" style="opacity: 1;"><g transform="translate(-20.444915771484375,-10)"><g class="node-item graph-item-input" transform="translate(0,0)"><path d="M5,0h30.88983154296875a5,5 0 0 1 5,5v10a5,5 0 0 1 -5,5h-30.88983154296875a5,5 0 0 1 -5,-5v-10a5,5 0 0 1 5,-5z" style="stroke: rgb(0, 0, 0); fill: rgb(238, 238, 238); stroke-width: 0;"/><text x="6" y="14" style="font-family: -apple-system, BlinkMacSystemFont, &quot;Segoe WPC&quot;, &quot;Segoe UI&quot;, Ubuntu, &quot;Droid Sans&quot;, sans-serif, &quot;PingFang SC&quot;; font-size: 11px; text-rendering: geometricprecision;">input</text><title>float32[?,32,32,4]</title></g><path class="node border" d="M5,0h30.88983154296875a5,5 0 0 1 5,5v10a5,5 0 0 1 -5,5h-30.88983154296875a5,5 0 0 1 -5,-5v-10a5,5 0 0 1 5,-5z" style="stroke: rgb(51, 51, 51); fill: none; stroke-width: 1px;"/></g></g><g class="node" transform="translate(56.5859375,1038)" style="opacity: 1;"><g transform="translate(-22,-10)"><g class="node-item graph-item-output" transform="translate(0,0)"><path d="M5,0h34a5,5 0 0 1 5,5v10a5,5 0 0 1 -5,5h-34a5,5 0 0 1 -5,-5v-10a5,5 0 0 1 5,-5z" style="stroke: rgb(0, 0, 0); fill: rgb(238, 238, 238); stroke-width: 0;"/><text x="6" y="14" style="font-family: -apple-system, BlinkMacSystemFont, &quot;Segoe WPC&quot;, &quot;Segoe UI&quot;, Ubuntu, &quot;Droid Sans&quot;, sans-serif, &quot;PingFang SC&quot;; font-size: 11px; text-rendering: geometricprecision;">dense</text></g><path class="node border" d="M5,0h34a5,5 0 0 1 5,5v10a5,5 0 0 1 -5,5h-34a5,5 0 0 1 -5,-5v-10a5,5 0 0 1 5,-5z" style="stroke: rgb(51, 51, 51); fill: none; stroke-width: 1px;"/></g></g></g></g></svg>